HIERARCHY
ROOT pelvis
{
	OFFSET 0.003123 -0.351407 0.012037
	CHANNELS 6 Xposition Yposition Zposition Zrotation Yrotation Xrotation 
	JOINT left_hip
	{
		OFFSET 0.058189 -0.092763 -0.026001
		CHANNELS 3 Zrotation Yrotation Xrotation
		JOINT left_knee
		{
			OFFSET 0.054695 -0.378753 -0.009396
			CHANNELS 3 Zrotation Yrotation Xrotation
			JOINT left_ankle
			{
				OFFSET -0.043453 -0.403059 -0.031876
				CHANNELS 3 Zrotation Yrotation Xrotation
				JOINT left_foot
				{
					OFFSET 0.047257 -0.057997 0.118216
					CHANNELS 3 Zrotation Yrotation Xrotation
					End Site
					{
						OFFSET 0.000000 0.000000 0.000000
					}
				}
			}
		}
	}
	JOINT right_hip
	{
		OFFSET -0.063267 -0.103908 -0.021250
		CHANNELS 3 Zrotation Yrotation Xrotation
		JOINT right_knee
		{
			OFFSET -0.044210 -0.362380 -0.016824
			CHANNELS 3 Zrotation Yrotation Xrotation
			JOINT right_ankle
			{
				OFFSET 0.015417 -0.410728 -0.020192
				CHANNELS 3 Zrotation Yrotation Xrotation
				JOINT right_foot
				{
					OFFSET -0.038812 -0.058328 0.119049
					CHANNELS 3 Zrotation Yrotation Xrotation
					End Site
					{
						OFFSET 0.000000 0.000000 0.000000
					}
				}
			}
		}
	}
	JOINT spine_1
	{
		OFFSET -0.002763 0.109891 -0.027618
		CHANNELS 3 Zrotation Yrotation Xrotation
		JOINT spine_2
		{
			OFFSET 0.009448 0.131853 -0.005940
			CHANNELS 3 Zrotation Yrotation Xrotation
			JOINT spine_3
			{
				OFFSET -0.011330 0.052235 0.028447
				CHANNELS 3 Zrotation Yrotation Xrotation
				JOINT neck
				{
					OFFSET -0.012164 0.165167 -0.031615
					CHANNELS 3 Zrotation Yrotation Xrotation
					JOINT head
					{
						OFFSET 0.024783 0.160452 0.020737
						CHANNELS 3 Zrotation Yrotation Xrotation
						End Site
						{
							OFFSET 0.000000 0.000000 0.000000
						}
					}
				}
				JOINT left_collar
				{
					OFFSET 0.046364 0.084944 -0.007220
					CHANNELS 3 Zrotation Yrotation Xrotation
					JOINT left_shoulder
					{
						OFFSET 0.119239 0.057728 -0.015461
						CHANNELS 3 Zrotation Yrotation Xrotation
						JOINT left_elbow
						{
							OFFSET 0.254123 -0.072151 -0.042459
							CHANNELS 3 Zrotation Yrotation Xrotation
							JOINT left_wrist
							{
								OFFSET 0.251987 0.023221 -0.002472
								CHANNELS 3 Zrotation Yrotation Xrotation
								JOINT left_index_1
								{
									OFFSET 0.101902 -0.008688 0.019351
									CHANNELS 3 Zrotation Yrotation Xrotation
									JOINT left_index_2
									{
										OFFSET 0.030149 -0.011154 0.001151
										CHANNELS 3 Zrotation Yrotation Xrotation
										JOINT left_index_3
										{
											OFFSET 0.006504 -0.021577 -0.002433
											CHANNELS 3 Zrotation Yrotation Xrotation
											End Site
											{
												OFFSET 0.000000 0.000000 0.000000
											}
										}
									}
								}
								JOINT left_middle_1
								{
									OFFSET 0.109398 -0.006328 -0.003981
									CHANNELS 3 Zrotation Yrotation Xrotation
									JOINT left_middle_2
									{
										OFFSET 0.026472 -0.015218 -0.004641
										CHANNELS 3 Zrotation Yrotation Xrotation
										JOINT left_middle_3
										{
											OFFSET 0.005022 -0.023347 -0.001911
											CHANNELS 3 Zrotation Yrotation Xrotation
											End Site
											{
												OFFSET 0.000000 0.000000 0.000000
											}
										}
									}
								}
								JOINT left_pinky_1
								{
									OFFSET 0.084047 -0.014539 -0.043750
									CHANNELS 3 Zrotation Yrotation Xrotation
									JOINT left_pinky_2
									{
										OFFSET 0.012124 -0.014448 -0.005375
										CHANNELS 3 Zrotation Yrotation Xrotation
										JOINT left_pinky_3
										{
											OFFSET 0.003798 -0.018853 0.000167
											CHANNELS 3 Zrotation Yrotation Xrotation
											End Site
											{
												OFFSET 0.000000 0.000000 0.000000
											}
										}
									}
								}
								JOINT left_ring_1
								{
									OFFSET 0.097444 -0.009268 -0.027345
									CHANNELS 3 Zrotation Yrotation Xrotation
									JOINT left_ring_2
									{
										OFFSET 0.023561 -0.016057 -0.001895
										CHANNELS 3 Zrotation Yrotation Xrotation
										JOINT left_ring_3
										{
											OFFSET 0.004257 -0.023548 0.000814
											CHANNELS 3 Zrotation Yrotation Xrotation
											End Site
											{
												OFFSET 0.000000 0.000000 0.000000
											}
										}
									}
								}
								JOINT left_thumb_1
								{
									OFFSET 0.040636 -0.017977 0.025611
									CHANNELS 3 Zrotation Yrotation Xrotation
									JOINT left_thumb_2
									{
										OFFSET 0.021637 -0.017639 0.011623
										CHANNELS 3 Zrotation Yrotation Xrotation
										JOINT left_thumb_3
										{
											OFFSET 0.024002 -0.008356 0.006548
											CHANNELS 3 Zrotation Yrotation Xrotation
											End Site
											{
												OFFSET 0.000000 0.000000 0.000000
											}
										}
									}
								}
							}
						}
					}
				}
				JOINT right_collar
				{
					OFFSET -0.047695 0.084339 -0.013400
					CHANNELS 3 Zrotation Yrotation Xrotation
					JOINT right_shoulder
					{
						OFFSET -0.102578 0.053524 -0.012669
						CHANNELS 3 Zrotation Yrotation Xrotation
						JOINT right_elbow
						{
							OFFSET -0.271150 -0.036492 -0.026467
							CHANNELS 3 Zrotation Yrotation Xrotation
							JOINT right_wrist
							{
								OFFSET -0.249267 -0.004533 -0.015325
								CHANNELS 3 Zrotation Yrotation Xrotation
								JOINT right_index_1
								{
									OFFSET -0.099881 -0.011783 0.019600
									CHANNELS 3 Zrotation Yrotation Xrotation
									JOINT right_index_2
									{
										OFFSET -0.030148 -0.011154 0.001151
										CHANNELS 3 Zrotation Yrotation Xrotation
										JOINT right_index_3
										{
											OFFSET -0.006505 -0.021577 -0.002432
											CHANNELS 3 Zrotation Yrotation Xrotation
											End Site
											{
												OFFSET 0.000000 0.000000 0.000000
											}
										}
									}
								}
								JOINT right_middle_1
								{
									OFFSET -0.107376 -0.009422 -0.003734
									CHANNELS 3 Zrotation Yrotation Xrotation
									JOINT right_middle_2
									{
										OFFSET -0.026472 -0.015218 -0.004641
										CHANNELS 3 Zrotation Yrotation Xrotation
										JOINT right_middle_3
										{
											OFFSET -0.005022 -0.023347 -0.001911
											CHANNELS 3 Zrotation Yrotation Xrotation
											End Site
											{
												OFFSET 0.000000 0.000000 0.000000
											}
										}
									}
								}
								JOINT right_pinky_1
								{
									OFFSET -0.082027 -0.017634 -0.043503
									CHANNELS 3 Zrotation Yrotation Xrotation
									JOINT right_pinky_2
									{
										OFFSET -0.012123 -0.014448 -0.005374
										CHANNELS 3 Zrotation Yrotation Xrotation
										JOINT right_pinky_3
										{
											OFFSET -0.003798 -0.018852 0.000167
											CHANNELS 3 Zrotation Yrotation Xrotation
											End Site
											{
												OFFSET 0.000000 0.000000 0.000000
											}
										}
									}
								}
								JOINT right_ring_1
								{
									OFFSET -0.095423 -0.012362 -0.027099
									CHANNELS 3 Zrotation Yrotation Xrotation
									JOINT right_ring_2
									{
										OFFSET -0.023561 -0.016057 -0.001895
										CHANNELS 3 Zrotation Yrotation Xrotation
										JOINT right_ring_3
										{
											OFFSET -0.004257 -0.023548 0.000816
											CHANNELS 3 Zrotation Yrotation Xrotation
											End Site
											{
												OFFSET 0.000000 0.000000 0.000000
											}
										}
									}
								}
								JOINT right_thumb_1
								{
									OFFSET -0.038613 -0.021074 0.025861
									CHANNELS 3 Zrotation Yrotation Xrotation
									JOINT right_thumb_2
									{
										OFFSET -0.021636 -0.017639 0.011623
										CHANNELS 3 Zrotation Yrotation Xrotation
										JOINT right_thumb_3
										{
											OFFSET -0.024004 -0.008353 0.006547
											CHANNELS 3 Zrotation Yrotation Xrotation
											End Site
											{
												OFFSET 0.000000 0.000000 0.000000
											}
										}
									}
								}
							}
						}
					}
				}
			}
		}
	}
}
MOTION
Frames: 5
Frame Time: 0.050000
-0.000916 0.927563 -0.064087 1.634801 3.705114 -14.518628 -0.915031 2.316085 15.683269 0.403437 -1.258347 10.457885 6.425614 0.975868 -14.885038 0.000000 0.000000 0.000000 -6.320126 -1.278492 18.514151 5.538766 -0.391296 3.146338 -4.146939 -3.271869 -9.581344 0.000000 0.000000 0.000000 -4.286730 -0.398587 1.779918 -6.731658 2.188263 -5.905087 8.871039 -0.256451 18.493700 2.614151 -0.730891 1.679262 0.000000 0.000000 0.000000 2.104583 -0.978982 0.705445 -32.035083 3.765030 -5.791617 166.975726 -75.348703 -149.708994 -2.206574 -10.803142 -33.478381 -5.135774 3.371849 1.169932 27.018465 -2.920697 -24.478395 0.000000 0.000000 0.000000 -9.960991 -17.236543 -8.008476 23.280192 -2.228260 -23.158946 0.000000 0.000000 0.000000 13.738201 -28.466244 -42.664414 17.611063 0.529978 3.686604 0.000000 0.000000 0.000000 -9.413107 -24.661961 -12.828890 34.473595 2.132670 -19.670733 0.000000 0.000000 0.000000 45.120946 25.716042 10.152934 -29.419722 -14.201110 6.971074 0.000000 0.000000 0.000000 -9.855697 9.704515 4.863446 -5.445069 41.116859 -7.618341 -30.360605 25.817400 -5.906491 -11.915918 10.099395 -27.187421 -3.458975 0.670637 -0.316215 -16.735539 4.096312 -19.570752 0.000000 0.000000 0.000000 -0.849434 23.806064 -12.224683 -10.943520 1.821540 -12.194955 0.000000 0.000000 0.000000 -23.277925 28.965894 -44.233623 -16.403166 -0.863957 7.080581 0.000000 0.000000 0.000000 -1.721357 29.959693 -19.270825 -24.270853 -1.567180 -6.538280 0.000000 0.000000 0.000000 -35.478048 -22.213061 5.582877 25.366726 14.420658 4.931529 0.000000 0.000000 0.000000 
-0.014342 0.951094 -0.020531 2.788574 6.538344 -16.340629 -4.729634 2.233720 12.475785 6.360138 -3.874110 18.684361 3.220291 4.828837 -1.811153 0.000000 0.000000 0.000000 -2.088137 -1.833425 16.229774 -1.710183 0.759100 14.195796 -4.162532 -8.247025 -0.685185 0.000000 0.000000 0.000000 -6.479004 -0.592117 4.784025 -8.390896 2.395300 -8.562982 11.595630 1.238911 24.789307 2.444619 -0.810690 2.251061 0.000000 0.000000 0.000000 2.531273 -3.096477 1.784018 -36.413436 -8.832380 -6.978360 146.449549 -76.728657 -126.245784 -15.895452 -10.628709 -24.287047 -38.572703 9.657534 3.974887 -28.615484 -15.431043 -31.901281 0.000000 0.000000 0.000000 -49.646508 -19.085786 -3.997101 6.573735 -6.902900 -32.028457 0.000000 0.000000 0.000000 -1.181201 -37.360085 -53.047383 5.099441 0.484197 1.261068 0.000000 0.000000 0.000000 -36.520389 -34.319585 -9.704828 13.390317 -4.546834 -30.852508 0.000000 0.000000 0.000000 30.227904 33.941861 18.972894 -24.331285 -26.177390 -2.060143 0.000000 0.000000 0.000000 -10.442929 12.563139 5.554707 -3.730168 41.131742 -6.422379 -40.623347 21.813159 -5.726515 -7.539126 26.154230 -49.545467 122.155191 -18.638003 -10.348869 -21.605517 -32.594242 -58.748803 0.000000 0.000000 0.000000 111.063776 43.154074 28.564444 -33.356430 2.362056 3.604996 0.000000 0.000000 0.000000 23.242958 60.961792 -50.996686 -8.527364 -3.516346 17.632515 0.000000 0.000000 0.000000 83.062428 66.424312 22.589341 -18.241166 -1.080250 2.937279 0.000000 0.000000 0.000000 -162.369953 -69.984550 104.864996 157.130708 -22.939222 41.709545 0.000000 0.000000 0.000000 
-0.023293 0.935299 -0.000732 1.656582 6.093185 -17.009117 -2.471044 2.227851 14.180762 7.782464 -3.593286 15.648539 3.082469 5.808668 -0.165985 0.000000 0.000000 0.000000 -0.433197 -1.712599 13.577160 -0.802417 0.800451 22.250423 -5.504529 -9.468468 -4.493924 0.000000 0.000000 0.000000 -1.143816 -0.749348 12.334112 -8.243133 1.646154 -10.988157 5.418661 3.020154 25.759377 4.355210 -0.712221 -0.129437 0.000000 0.000000 0.000000 3.919638 -4.784824 2.730632 -41.329904 -23.707024 -6.812281 106.987829 -77.022883 -83.724118 -35.817403 -0.662985 -7.692363 -145.068318 15.907927 -12.552054 100.318354 23.084327 -49.337596 0.000000 0.000000 0.000000 -129.942248 -2.245000 -16.579126 72.151641 1.774081 -17.608497 0.000000 0.000000 0.000000 -116.028290 -25.884986 -24.960239 51.699087 0.737018 -3.002623 0.000000 0.000000 0.000000 -121.694760 -25.699954 3.355132 62.704313 5.475416 -3.518074 0.000000 0.000000 0.000000 -65.587752 25.861825 40.860259 128.981772 32.457718 47.146395 0.000000 0.000000 0.000000 -19.088078 12.723994 4.575010 9.652504 43.868950 -2.104778 -57.711756 22.404354 -7.841994 -5.360487 36.334989 -63.629722 -171.698750 -35.859201 -110.892616 -23.388517 -1.662874 -41.663146 0.000000 0.000000 0.000000 136.850231 4.030327 -4.885617 -64.187235 -4.589963 -6.883602 0.000000 0.000000 0.000000 109.410099 50.932617 -5.428840 -33.774082 0.602065 22.258665 0.000000 0.000000 0.000000 135.710170 38.524353 34.185898 -54.963650 -3.826253 13.215778 0.000000 0.000000 0.000000 -141.375456 -22.854521 -144.054330 -158.995345 11.128931 83.998474 0.000000 0.000000 0.000000 
-0.015991 0.931108 -0.023170 0.347976 7.182269 -12.857212 3.932912 1.184789 12.781563 1.266989 -1.150130 8.472317 -0.698564 -6.546076 -5.009248 0.000000 0.000000 0.000000 1.194009 -1.739609 12.099826 -1.463996 0.700994 14.500587 -6.338468 -10.608434 -7.034687 0.000000 0.000000 0.000000 2.514274 -0.250553 5.785640 -6.839096 1.182914 -10.428011 2.426832 2.042520 26.652795 4.709768 -1.506447 3.302651 0.000000 0.000000 0.000000 -0.593018 -3.346381 1.531718 -42.296695 -23.859633 -6.697280 82.805669 -77.254414 -60.528369 -21.342520 -1.954541 -6.387711 -64.082526 15.801275 0.341278 -77.439570 9.821566 0.894782 0.000000 0.000000 0.000000 -93.826038 3.019074 -13.014066 16.198581 -5.197051 -26.637837 0.000000 0.000000 0.000000 -96.581049 -19.056562 -24.336459 60.283180 4.291536 -11.691105 0.000000 0.000000 0.000000 -85.928599 -18.570152 -3.879713 5.972651 -4.253426 -21.629526 0.000000 0.000000 0.000000 10.505518 20.748434 16.557410 -2.615409 -8.402946 -2.224875 0.000000 0.000000 0.000000 -18.044883 13.215838 5.018226 14.159694 41.848054 -0.920100 -60.707517 32.047484 -14.609537 2.204005 9.877157 -47.265875 174.817592 -36.577102 -117.699000 0.300635 -5.079112 -18.606483 0.000000 0.000000 0.000000 125.385877 -2.126654 -6.732773 -40.948087 -2.418119 -19.365519 0.000000 0.000000 0.000000 119.527261 36.993690 -7.219487 -43.073585 2.011820 16.853196 0.000000 0.000000 0.000000 128.562499 26.401703 20.157774 -53.677746 -9.785485 -9.117673 0.000000 0.000000 0.000000 -163.557017 -7.875823 -132.252545 -142.888950 15.363320 153.491207 0.000000 0.000000 0.000000 
-0.007864 0.917328 -0.037689 0.791278 4.570249 -12.563472 4.895001 0.957519 10.590543 -2.272504 -1.033036 12.459806 1.573584 -7.961990 -11.139185 0.000000 0.000000 0.000000 -3.161542 -1.017397 10.653432 3.392691 -0.189998 14.966183 -6.520706 -7.795433 -12.818249 0.000000 0.000000 0.000000 2.672749 -0.384516 6.949229 -8.655163 0.935193 -13.764254 5.112872 2.805090 29.569465 2.062922 -0.815538 2.652830 0.000000 0.000000 0.000000 0.681645 -5.090686 2.521302 -48.365757 -20.611258 -7.118115 70.063305 -76.105315 -47.520389 -8.919715 -8.039628 -11.316995 -17.726040 8.030685 2.407519 -35.745243 7.758111 9.802682 0.000000 0.000000 0.000000 -29.990147 -3.278310 -4.965733 -50.542598 1.235743 -0.723163 0.000000 0.000000 0.000000 -11.722391 -25.841392 -39.062699 -50.183771 5.637415 6.207817 0.000000 0.000000 0.000000 -26.760668 -16.953306 -9.059773 -55.615803 -5.182533 0.154446 0.000000 0.000000 0.000000 12.482654 24.252432 17.206203 -5.837422 -14.600646 -3.415074 0.000000 0.000000 0.000000 -15.538043 9.453888 3.862742 20.265915 45.643289 0.985854 -62.353714 40.080651 -20.856508 -0.452140 6.336524 -34.399965 85.511443 -22.423230 -15.752201 68.259965 7.890343 0.847376 0.000000 0.000000 0.000000 91.841007 0.272032 -3.736474 4.441482 5.036575 -31.333635 0.000000 0.000000 0.000000 79.360446 33.478349 -17.670145 -18.045052 0.065829 -4.126988 0.000000 0.000000 0.000000 86.699378 26.568565 7.430412 -9.707595 2.618107 -20.286555 0.000000 0.000000 0.000000 2.285460 -4.608422 4.913826 -36.578325 -22.246569 71.316917 0.000000 0.000000 0.000000 
